<mxfile host="65bd71144e">
    <diagram id="XaGSM2G8S82zHEP58ltX" name="Page-1">
        <mxGraphModel dx="1211" dy="871" grid="1" gridSize="10" guides="1" tooltips="1" connect="1" arrows="1" fold="1" page="1" pageScale="1" pageWidth="850" pageHeight="1100" math="0" shadow="0">
            <root>
                <mxCell id="0"/>
                <mxCell id="1" parent="0"/>
                <mxCell id="31" value="&lt;p style=&quot;caret-color: rgb(0, 0, 0); line-height: 210%; font-size: 14px;&quot;&gt;&lt;font style=&quot;font-size: 14px;&quot;&gt;&lt;strong style=&quot;&quot;&gt;რა არის პორტი?&lt;/strong&gt;&lt;br&gt;პორტი არის მონაცემთა კომუნიკაციის წერტილი, რომელიც გამოიყენება მოწყობილობების შორის ინფორმაციის გადაცემისას. თითოეული პორტი შეესაბამება კონკრეტულ სერვისს, მაგალითად, HTTP სერვისი ჩვეულებრივ იყენებს პორტ 80-ს.&lt;/font&gt;&lt;/p&gt;&lt;p style=&quot;caret-color: rgb(0, 0, 0); line-height: 210%; font-size: 14px;&quot;&gt;&lt;font style=&quot;font-size: 14px;&quot;&gt;&lt;strong&gt;როგორ ხდება ბრაუზერის მიერ მოთხოვნების გაკეთება?&lt;/strong&gt;&lt;br&gt;&lt;/font&gt;&lt;/p&gt;&lt;p style=&quot;caret-color: rgb(0, 0, 0); line-height: 210%; font-size: 14px;&quot;&gt;&lt;font style=&quot;font-size: 14px;&quot;&gt;როდესაც მომხმარებელი აკრეფს URL-ს ბრაუზერში, ბრაუზერი პირველად მიმართავს DNS სერვერს, რათა მოიძიოს შესაბამისი IP მისამართი. ამის შემდეგ, ის უკავშირდება სერვერს და გააკეთებს HTTP მოთხოვნას, რათა მიიღოს საჭირო მონაცემები.&lt;/font&gt;&lt;/p&gt;&lt;p style=&quot;caret-color: rgb(0, 0, 0); line-height: 210%; font-size: 14px;&quot;&gt;&lt;font style=&quot;font-size: 14px;&quot;&gt;&lt;strong&gt;რა არის DNS?&lt;/strong&gt;&lt;br&gt;DNS (Domain Name System) არის სისტემა, რომელიც გადმოიყვანავს ადამიანისგან აღქმულ დომენურ სახელებს (მაგ.&lt;span class=&quot;Apple-converted-space&quot;&gt;&amp;nbsp;&lt;/span&gt;&lt;a href=&quot;http://www.example.com/&quot; target=&quot;_new&quot; rel=&quot;noopener&quot;&gt;www.example.com&lt;/a&gt;) კომპიუტერისათვის საჭირო IP მისამართებში.&lt;/font&gt;&lt;/p&gt;&lt;p style=&quot;caret-color: rgb(0, 0, 0); line-height: 210%; font-size: 14px;&quot;&gt;&lt;font style=&quot;font-size: 14px;&quot;&gt;&lt;strong style=&quot;&quot;&gt;რა არის HTTP?&lt;/strong&gt;&lt;br&gt;&lt;/font&gt;&lt;/p&gt;&lt;div style=&quot;line-height: 210%; font-size: 14px;&quot;&gt;&lt;span style=&quot;background-color: initial;&quot;&gt;&lt;font style=&quot;font-size: 14px;&quot;&gt;HTTP (HyperText Transfer Protocol) არის პროტოკოლი, რომელიც გამოიყენება მონაცემების გადაცემისათვის ბრაუზერებსა და სერვერებს შორის. HTTP-ის საშუალებით ხდება მონაცემების მოთხოვნა და პასუხი&lt;/font&gt;&lt;span style=&quot;font-size: 13px;&quot;&gt;.&lt;/span&gt;&lt;/span&gt;&lt;/div&gt;&lt;p&gt;&lt;/p&gt;" style="rounded=1;whiteSpace=wrap;html=1;flipV=1;flipH=1;" vertex="1" parent="1">
                    <mxGeometry x="60" y="410" width="720" height="580" as="geometry"/>
                </mxCell>
                <mxCell id="30" value="" style="rounded=1;whiteSpace=wrap;html=1;flipV=1;flipH=1;" vertex="1" parent="1">
                    <mxGeometry x="30" y="60" width="790" height="270" as="geometry"/>
                </mxCell>
                <mxCell id="19" style="edgeStyle=none;html=1;startArrow=none;" edge="1" parent="1" source="24">
                    <mxGeometry relative="1" as="geometry">
                        <mxPoint x="370" y="210" as="targetPoint"/>
                    </mxGeometry>
                </mxCell>
                <mxCell id="3" value="FILES" style="aspect=fixed;html=1;points=[];align=center;image;fontSize=12;image=img/lib/azure2/general/Files.svg;" vertex="1" parent="1">
                    <mxGeometry x="110" y="170" width="73.14" height="80" as="geometry"/>
                </mxCell>
                <mxCell id="23" style="edgeStyle=none;html=1;" edge="1" parent="1" source="4">
                    <mxGeometry relative="1" as="geometry">
                        <mxPoint x="620" y="200" as="targetPoint"/>
                    </mxGeometry>
                </mxCell>
                <mxCell id="26" value="HTTP RESPONSE" style="edgeLabel;html=1;align=center;verticalAlign=middle;resizable=0;points=[];" vertex="1" connectable="0" parent="23">
                    <mxGeometry x="-0.256" y="-2" relative="1" as="geometry">
                        <mxPoint x="8" y="-9" as="offset"/>
                    </mxGeometry>
                </mxCell>
                <mxCell id="4" value="WEB SERVER" style="aspect=fixed;perimeter=ellipsePerimeter;html=1;align=center;shadow=0;dashed=0;spacingTop=3;image;image=img/lib/active_directory/web_server.svg;" vertex="1" parent="1">
                    <mxGeometry x="390" y="158.75" width="90" height="112.5" as="geometry"/>
                </mxCell>
                <mxCell id="22" style="edgeStyle=none;html=1;" edge="1" parent="1" source="5">
                    <mxGeometry relative="1" as="geometry">
                        <mxPoint x="480" y="260" as="targetPoint"/>
                    </mxGeometry>
                </mxCell>
                <mxCell id="27" value="HTTP REQUEST" style="edgeLabel;html=1;align=center;verticalAlign=middle;resizable=0;points=[];" vertex="1" connectable="0" parent="22">
                    <mxGeometry x="-0.056" y="1" relative="1" as="geometry">
                        <mxPoint x="1" y="-1" as="offset"/>
                    </mxGeometry>
                </mxCell>
                <mxCell id="5" value="BROWSER" style="aspect=fixed;perimeter=ellipsePerimeter;html=1;align=center;shadow=0;dashed=0;fontColor=#4277BB;labelBackgroundColor=#ffffff;fontSize=12;spacingTop=3;image;image=img/lib/ibm/users/browser.svg;" vertex="1" parent="1">
                    <mxGeometry x="630" y="170" width="90" height="90" as="geometry"/>
                </mxCell>
                <mxCell id="9" value="SERVER SIDE" style="rounded=1;arcSize=9;align=center;spacingLeft=5;strokeColor=#4C9AFF;html=1;strokeWidth=2;fontSize=12" vertex="1" parent="1">
                    <mxGeometry x="140" y="90" width="180" height="30" as="geometry"/>
                </mxCell>
                <mxCell id="11" value="CLIENT SIDE" style="rounded=1;arcSize=9;align=center;spacingLeft=5;strokeColor=#4C9AFF;html=1;strokeWidth=2;fontSize=12" vertex="1" parent="1">
                    <mxGeometry x="480" y="90" width="180" height="30" as="geometry"/>
                </mxCell>
                <mxCell id="12" value="" style="html=1;verticalLabelPosition=bottom;labelBackgroundColor=#ffffff;verticalAlign=top;shadow=0;dashed=0;strokeWidth=2;shape=mxgraph.ios7.misc.info;strokeColor=#0080f0;sketch=0;" vertex="1" parent="1">
                    <mxGeometry x="670" y="380" width="80" height="80" as="geometry"/>
                </mxCell>
                <mxCell id="28" value="" style="edgeStyle=none;html=1;endArrow=none;" edge="1" parent="1" source="3" target="24">
                    <mxGeometry relative="1" as="geometry">
                        <mxPoint x="370" y="210" as="targetPoint"/>
                        <mxPoint x="183.1400000000001" y="210" as="sourcePoint"/>
                    </mxGeometry>
                </mxCell>
                <mxCell id="24" value="წინასწარ შექმნილი: HTML, CSS, JS და სხვა ფაილები" style="text;html=1;strokeColor=none;fillColor=none;align=center;verticalAlign=middle;whiteSpace=wrap;rounded=0;" vertex="1" parent="1">
                    <mxGeometry x="240" y="220" width="60" height="30" as="geometry"/>
                </mxCell>
            </root>
        </mxGraphModel>
    </diagram>
</mxfile>